{"title":"James Horner - Der Name Der Rose (The Name Of The Rose) [EAC-FLA","uid":4873463,"size":210145618,"categoryP":"audio","categoryS":"flac","magnet":"?xt=urn:btih:f184a6f11182d7596c4d56214ff2f6a0abe65fde&amp;dn=James+Horner+-+Der+Name+Der+Rose+%28The+Name+Of+The+Rose%29+%5BEAC-FLA&amp;tr=udp%3A%2F%2Ftracker.openbittorrent.com%3A80&amp;tr=udp%3A%2F%2Fopen.demonii.com%3A1337&amp;tr=udp%3A%2F%2Ftracker.coppersurfer.tk%3A6969&amp;tr=udp%3A%2F%2Fexodus.desync.com%3A6969","seeders":2,"leechers":0,"uploader":"repopo","files":-1,"time":1240968090,"description":"*******************************************************************************\n            James Horner - Der Name Der Rose (The Name Of The Rose)\n*******************************************************************************\n\nTracklist\n\n01. Main titles    [0:03:01.50]\n02. Beata viscera    [0:02:21.47]\n03. First recongnition    [0:02:31.55]\n04. The lesson    [0:04:21.20]\n05. Kyrie    [0:02:24.20]\n06. The scriptorium    [0:03:57.30]\n07. Veni sancte spiritus    [0:03:15.55]\n08. The confession    [0:03:12.48]\n09. Flashbacks    [0:02:06.00]\n10. The discovery    [0:02:28.67]\n11. Betrayed     [0:02:58.18]\n12. Epilogue    [0:06:14.70]\n13. End titles    [0:03:12.52]\n\n-------------------------------------------------------------------------------\n                                 Release Notes\n-------------------------------------------------------------------------------\nExact Audio Copy V0.99 prebeta 4 from 23. January 2008\n\nEAC extraction logfile from 28. April 2009, 15:33\n\nJames Horner / The name of the rose\n\nUsed drive  : HL-DT-STDVD-RAM GSA-H55N   Adapter: 3  ID: 1\n\nRead mode               : Secure\nUtilize accurate stream : Yes\nDefeat audio cache      : No\nMake use of C2 pointers : No\n\nRead offset correction                      : 102\nOverread into Lead-In and Lead-Out          : No\nFill up missing offset samples with silence : Yes\nDelete leading and trailing silent blocks   : No\nNull samples used in CRC calculations       : No\nUsed interface                              : Native Win32 interface for Win NT \n&amp; 2000\nGap handling                                : Not detected, thus appended to \nprevious track\n\nUsed output format              : User Defined Encoder\nSelected bitrate                : 1024 kBit/s\nQuality                         : High\nAdd ID3 tag                     : Yes\nCommand line compressor         : F:Archivos de programaExact Audio \nCopyFLACFLAC.EXE\nAdditional command line options : -6 -V -T &quot;ARTIST=%a&quot; -T &quot;TITLE=%t&quot; -T \n&quot;ALBUM=%g&quot; -T &quot;DATE=%y&quot; -T &quot;TRACKNUMBER=%n&quot; -T &quot;GENRE=%m&quot; -T &quot;COMMENT=%e&quot; %s -o \n%d\n\n\nTOC of the extracted CD\n\n     Track |   Start  |  Length  | Start sector | End sector \n    ---------------------------------------------------------\n        1  |  0:00.33 |  3:01.50 |        33    |    13657   \n        2  |  3:02.08 |  2:21.47 |     13658    |    24279   \n        3  |  5:23.55 |  2:31.55 |     24280    |    35659   \n        4  |  7:55.35 |  4:21.20 |     35660    |    55254   \n        5  | 12:16.55 |  2:24.20 |     55255    |    66074   \n        6  | 14:41.00 |  3:57.30 |     66075    |    83879   \n        7  | 18:38.30 |  3:15.55 |     83880    |    98559   \n        8  | 21:54.10 |  3:12.48 |     98560    |   113007   \n        9  | 25:06.58 |  2:06.00 |    113008    |   122457   \n       10  | 27:12.58 |  2:28.67 |    122458    |   133624   \n       11  | 29:41.50 |  2:58.18 |    133625    |   146992   \n       12  | 32:39.68 |  6:14.70 |    146993    |   175112   \n       13  | 38:54.63 |  3:12.52 |    175113    |   189564   \n\n\n\n-------------------------------------------------------------------------------","torrent":{"xt":"urn:btih:f184a6f11182d7596c4d56214ff2f6a0abe65fde","amp;dn":"James+Horner+-+Der+Name+Der+Rose+%28The+Name+Of+The+Rose%29+%5BEAC-FLA","amp;tr":["udp%3A%2F%2Ftracker.openbittorrent.com%3A80","udp%3A%2F%2Fopen.demonii.com%3A1337","udp%3A%2F%2Ftracker.coppersurfer.tk%3A6969","udp%3A%2F%2Fexodus.desync.com%3A6969"],"infoHash":"f184a6f11182d7596c4d56214ff2f6a0abe65fde","infoHashBuffer":{"type":"Buffer","data":[241,132,166,241,17,130,215,89,108,77,86,33,79,242,246,160,171,230,95,222]},"announce":[],"urlList":[]}}